<?xml version="1.0" standalone="no"?><!DOCTYPE svg PUBLIC "-//W3C//DTD SVG 1.1//EN" "http://www.w3.org/Graphics/SVG/1.1/DTD/svg11.dtd"><svg t="1608544789827" class="icon" viewBox="0 0 1024 1024" version="1.1" xmlns="http://www.w3.org/2000/svg" p-id="3038" xmlns:xlink="http://www.w3.org/1999/xlink" width="128" height="128"><defs><style type="text/css"></style></defs><path d="M512 1013.76c-277.11488 0-501.76-224.64512-501.76-501.76S234.88512 10.24 512 10.24s501.76 224.64512 501.76 501.76-224.64512 501.76-501.76 501.76z m0-51.02592c248.9344 0 450.73408-201.79968 450.73408-450.73408 0-248.9344-201.79968-450.73408-450.73408-450.73408-248.9344 0-450.73408 201.79968-450.73408 450.73408 0 248.9344 201.79968 450.73408 450.73408 450.73408z m-89.22112-361.0112c60.928-74.33216 195.9424-222.67904 382.08512-340.16256l15.616 37.4784c-171.14624 161.8944-311.36768 322.23744-355.45088 438.76864l-256.8704-201.6 65.82784-54.48704 148.7872 119.99744z" p-id="3039" fill="#1afa29"></path></svg>